<?xml version="1.0" encoding="UTF-8" standalone="no"?>
<!DOCTYPE svg PUBLIC "-//W3C//DTD SVG 1.1//EN"
 "http://www.w3.org/Graphics/SVG/1.1/DTD/svg11.dtd">
<!-- Generated by graphviz version 2.47.0 (20210316.0004)
 -->
<!-- Title: dependencies Pages: 1 -->
<svg width="3169pt" height="284pt"
 viewBox="0.00 0.00 3169.00 284.00" xmlns="http://www.w3.org/2000/svg" xmlns:xlink="http://www.w3.org/1999/xlink">
<g id="graph0" class="graph" transform="scale(1 1) rotate(0) translate(4 280)">
<title>dependencies</title>
<polygon fill="white" stroke="transparent" points="-4,4 -4,-280 3165,-280 3165,4 -4,4"/>
<text text-anchor="start" x="1559.51" y="-42.4" font-family="Times-12" font-weight="bold" font-size="14.00">Legend</text>
<polygon fill="#ffffb3" stroke="transparent" points="1346.5,-10 1346.5,-30 1366.5,-30 1366.5,-10 1346.5,-10"/>
<text text-anchor="start" x="1370.13" y="-15.4" font-family="Times-12" font-size="14.00"> &#160;Declarations</text>
<polygon fill="#8dd3c7" stroke="transparent" points="1459.5,-10 1459.5,-30 1479.5,-30 1479.5,-10 1459.5,-10"/>
<text text-anchor="start" x="1483.23" y="-15.4" font-family="Times-12" font-size="14.00"> &#160;Module</text>
<polygon fill="#80b1d3" stroke="transparent" points="1545.5,-10 1545.5,-30 1565.5,-30 1565.5,-10 1545.5,-10"/>
<text text-anchor="start" x="1569.28" y="-15.4" font-family="Times-12" font-size="14.00"> &#160;Bootstrap</text>
<polygon fill="#fdb462" stroke="transparent" points="1642.5,-10 1642.5,-30 1662.5,-30 1662.5,-10 1642.5,-10"/>
<text text-anchor="start" x="1666.17" y="-15.4" font-family="Times-12" font-size="14.00"> &#160;Providers</text>
<polygon fill="#fb8072" stroke="transparent" points="1738.5,-10 1738.5,-30 1758.5,-30 1758.5,-10 1738.5,-10"/>
<text text-anchor="start" x="1762.23" y="-15.4" font-family="Times-12" font-size="14.00"> &#160;Exports</text>
<g id="clust1" class="cluster">
<title>cluster_AdminModule</title>
<polygon fill="none" stroke="black" stroke-dasharray="1,5" points="8,-70 8,-195 791,-195 791,-70 8,-70"/>
</g>
<g id="clust2" class="cluster">
<title>cluster_AdminModule_declarations</title>
<polygon fill="none" stroke="black" points="184,-78 184,-130 783,-130 783,-78 184,-78"/>
</g>
<g id="clust7" class="cluster">
<title>cluster_AdminModule_imports</title>
<polygon fill="none" stroke="black" points="16,-78 16,-130 176,-130 176,-78 16,-78"/>
</g>
<g id="clust17" class="cluster">
<title>cluster_AppModule</title>
<polygon fill="none" stroke="black" stroke-dasharray="1,5" points="799,-70 799,-268 1217,-268 1217,-70 799,-70"/>
</g>
<g id="clust18" class="cluster">
<title>cluster_AppModule_declarations</title>
<polygon fill="none" stroke="black" points="959,-78 959,-130 1209,-130 1209,-78 959,-78"/>
</g>
<g id="clust21" class="cluster">
<title>cluster_AppModule_imports</title>
<polygon fill="none" stroke="black" points="807,-78 807,-130 951,-130 951,-78 807,-78"/>
</g>
<g id="clust23" class="cluster">
<title>cluster_AppModule_bootstrap</title>
<polygon fill="none" stroke="black" points="960,-208 960,-260 1084,-260 1084,-208 960,-208"/>
</g>
<g id="clust31" class="cluster">
<title>cluster_AuthModule</title>
<polygon fill="none" stroke="black" stroke-dasharray="1,5" points="1225,-70 1225,-195 1809,-195 1809,-70 1225,-70"/>
</g>
<g id="clust32" class="cluster">
<title>cluster_AuthModule_declarations</title>
<polygon fill="none" stroke="black" points="1531,-78 1531,-130 1801,-130 1801,-78 1531,-78"/>
</g>
<g id="clust35" class="cluster">
<title>cluster_AuthModule_imports</title>
<polygon fill="none" stroke="black" points="1375,-78 1375,-130 1523,-130 1523,-78 1375,-78"/>
</g>
<g id="clust38" class="cluster">
<title>cluster_AuthModule_providers</title>
<polygon fill="none" stroke="black" points="1233,-78 1233,-130 1367,-130 1367,-78 1233,-78"/>
</g>
<g id="clust45" class="cluster">
<title>cluster_ProductModule</title>
<polygon fill="none" stroke="black" stroke-dasharray="1,5" points="1817,-70 1817,-195 2547,-195 2547,-70 1817,-70"/>
</g>
<g id="clust46" class="cluster">
<title>cluster_ProductModule_declarations</title>
<polygon fill="none" stroke="black" points="1997,-78 1997,-130 2539,-130 2539,-78 1997,-78"/>
</g>
<g id="clust51" class="cluster">
<title>cluster_ProductModule_imports</title>
<polygon fill="none" stroke="black" points="1825,-78 1825,-130 1989,-130 1989,-78 1825,-78"/>
</g>
<g id="clust61" class="cluster">
<title>cluster_PublicModule</title>
<polygon fill="none" stroke="black" stroke-dasharray="1,5" points="2555,-70 2555,-195 3153,-195 3153,-70 2555,-70"/>
</g>
<g id="clust62" class="cluster">
<title>cluster_PublicModule_declarations</title>
<polygon fill="none" stroke="black" points="2727,-78 2727,-130 3145,-130 3145,-78 2727,-78"/>
</g>
<g id="clust66" class="cluster">
<title>cluster_PublicModule_imports</title>
<polygon fill="none" stroke="black" points="2563,-78 2563,-130 2719,-130 2719,-78 2563,-78"/>
</g>
<!-- AheaderComponent -->
<g id="node1" class="node">
<title>AheaderComponent</title>
<polygon fill="#ffffb3" stroke="black" points="775.24,-122 646.76,-122 646.76,-86 775.24,-86 775.24,-122"/>
<text text-anchor="middle" x="711" y="-99.8" font-family="Times,serif" font-size="14.00">AheaderComponent</text>
</g>
<!-- AdminModule -->
<g id="node5" class="node">
<title>AdminModule</title>
<polygon fill="#8dd3c7" stroke="black" points="465.44,-187 462.44,-191 441.44,-191 438.44,-187 366.56,-187 366.56,-151 465.44,-151 465.44,-187"/>
<text text-anchor="middle" x="416" y="-164.8" font-family="Times,serif" font-size="14.00">AdminModule</text>
</g>
<!-- AheaderComponent&#45;&gt;AdminModule -->
<g id="edge1" class="edge">
<title>AheaderComponent&#45;&gt;AdminModule</title>
<path fill="none" stroke="black" d="M711,-122.11C711,-141.34 711,-169 711,-169 711,-169 475.38,-169 475.38,-169"/>
<polygon fill="black" stroke="black" points="475.38,-165.5 465.38,-169 475.38,-172.5 475.38,-165.5"/>
</g>
<!-- AlayoutComponent -->
<g id="node2" class="node">
<title>AlayoutComponent</title>
<polygon fill="#ffffb3" stroke="black" points="628.44,-122 501.56,-122 501.56,-86 628.44,-86 628.44,-122"/>
<text text-anchor="middle" x="565" y="-99.8" font-family="Times,serif" font-size="14.00">AlayoutComponent</text>
</g>
<!-- AlayoutComponent&#45;&gt;AdminModule -->
<g id="edge2" class="edge">
<title>AlayoutComponent&#45;&gt;AdminModule</title>
<path fill="none" stroke="black" d="M565,-122.03C565,-138.4 565,-160 565,-160 565,-160 475.61,-160 475.61,-160"/>
<polygon fill="black" stroke="black" points="475.61,-156.5 465.61,-160 475.61,-163.5 475.61,-156.5"/>
</g>
<!-- DashbordComponent -->
<g id="node3" class="node">
<title>DashbordComponent</title>
<polygon fill="#ffffb3" stroke="black" points="483.76,-122 348.24,-122 348.24,-86 483.76,-86 483.76,-122"/>
<text text-anchor="middle" x="416" y="-99.8" font-family="Times,serif" font-size="14.00">DashbordComponent</text>
</g>
<!-- DashbordComponent&#45;&gt;AdminModule -->
<g id="edge3" class="edge">
<title>DashbordComponent&#45;&gt;AdminModule</title>
<path fill="none" stroke="black" d="M416,-122.11C416,-122.11 416,-140.99 416,-140.99"/>
<polygon fill="black" stroke="black" points="412.5,-140.99 416,-150.99 419.5,-140.99 412.5,-140.99"/>
</g>
<!-- SidemenuComponent -->
<g id="node4" class="node">
<title>SidemenuComponent</title>
<polygon fill="#ffffb3" stroke="black" points="329.83,-122 192.17,-122 192.17,-86 329.83,-86 329.83,-122"/>
<text text-anchor="middle" x="261" y="-99.8" font-family="Times,serif" font-size="14.00">SidemenuComponent</text>
</g>
<!-- SidemenuComponent&#45;&gt;AdminModule -->
<g id="edge4" class="edge">
<title>SidemenuComponent&#45;&gt;AdminModule</title>
<path fill="none" stroke="black" d="M261,-122.02C261,-139.37 261,-163 261,-163 261,-163 356.53,-163 356.53,-163"/>
<polygon fill="black" stroke="black" points="356.53,-166.5 366.53,-163 356.53,-159.5 356.53,-166.5"/>
</g>
<!-- AdminRoutingModule -->
<g id="node6" class="node">
<title>AdminRoutingModule</title>
<polygon fill="#8dd3c7" stroke="black" points="167.56,-122 164.56,-126 143.56,-126 140.56,-122 24.44,-122 24.44,-86 167.56,-86 167.56,-122"/>
<text text-anchor="middle" x="96" y="-99.8" font-family="Times,serif" font-size="14.00">AdminRoutingModule</text>
</g>
<!-- AdminRoutingModule&#45;&gt;AdminModule -->
<g id="edge5" class="edge">
<title>AdminRoutingModule&#45;&gt;AdminModule</title>
<path fill="none" stroke="black" d="M96,-122.28C96,-143.32 96,-175 96,-175 96,-175 356.7,-175 356.7,-175"/>
<polygon fill="black" stroke="black" points="356.7,-178.5 366.7,-175 356.7,-171.5 356.7,-178.5"/>
</g>
<!-- AppComponent -->
<g id="node7" class="node">
<title>AppComponent</title>
<polygon fill="#ffffb3" stroke="black" points="1200.94,-122 1095.06,-122 1095.06,-86 1200.94,-86 1200.94,-122"/>
<text text-anchor="middle" x="1148" y="-99.8" font-family="Times,serif" font-size="14.00">AppComponent</text>
</g>
<!-- AppModule -->
<g id="node9" class="node">
<title>AppModule</title>
<polygon fill="#8dd3c7" stroke="black" points="1063.66,-187 1060.66,-191 1039.66,-191 1036.66,-187 980.34,-187 980.34,-151 1063.66,-151 1063.66,-187"/>
<text text-anchor="middle" x="1022" y="-164.8" font-family="Times,serif" font-size="14.00">AppModule</text>
</g>
<!-- AppComponent&#45;&gt;AppModule -->
<g id="edge6" class="edge">
<title>AppComponent&#45;&gt;AppModule</title>
<path fill="none" stroke="black" d="M1148,-122.28C1148,-143.32 1148,-175 1148,-175 1148,-175 1073.96,-175 1073.96,-175"/>
<polygon fill="black" stroke="black" points="1073.96,-171.5 1063.96,-175 1073.96,-178.5 1073.96,-171.5"/>
</g>
<!-- ErrorComponent -->
<g id="node8" class="node">
<title>ErrorComponent</title>
<polygon fill="#ffffb3" stroke="black" points="1077.37,-122 966.63,-122 966.63,-86 1077.37,-86 1077.37,-122"/>
<text text-anchor="middle" x="1022" y="-99.8" font-family="Times,serif" font-size="14.00">ErrorComponent</text>
</g>
<!-- ErrorComponent&#45;&gt;AppModule -->
<g id="edge7" class="edge">
<title>ErrorComponent&#45;&gt;AppModule</title>
<path fill="none" stroke="black" d="M1022,-122.11C1022,-122.11 1022,-140.99 1022,-140.99"/>
<polygon fill="black" stroke="black" points="1018.5,-140.99 1022,-150.99 1025.5,-140.99 1018.5,-140.99"/>
</g>
<!-- AppComponent  -->
<g id="node11" class="node">
<title>AppComponent </title>
<polygon fill="#80b1d3" stroke="black" points="1076.44,-252 967.56,-252 967.56,-216 1076.44,-216 1076.44,-252"/>
<text text-anchor="middle" x="1022" y="-229.8" font-family="Times,serif" font-size="14.00">AppComponent </text>
</g>
<!-- AppModule&#45;&gt;AppComponent  -->
<g id="edge9" class="edge">
<title>AppModule&#45;&gt;AppComponent </title>
<path fill="none" stroke="black" stroke-dasharray="1,5" d="M1022,-187.11C1022,-187.11 1022,-205.99 1022,-205.99"/>
<polygon fill="black" stroke="black" points="1018.5,-205.99 1022,-215.99 1025.5,-205.99 1018.5,-205.99"/>
</g>
<!-- AppRoutingModule -->
<g id="node10" class="node">
<title>AppRoutingModule</title>
<polygon fill="#8dd3c7" stroke="black" points="943.27,-122 940.27,-126 919.27,-126 916.27,-122 814.73,-122 814.73,-86 943.27,-86 943.27,-122"/>
<text text-anchor="middle" x="879" y="-99.8" font-family="Times,serif" font-size="14.00">AppRoutingModule</text>
</g>
<!-- AppRoutingModule&#45;&gt;AppModule -->
<g id="edge8" class="edge">
<title>AppRoutingModule&#45;&gt;AppModule</title>
<path fill="none" stroke="black" d="M879,-122.29C879,-144.21 879,-178 879,-178 879,-178 970.25,-178 970.25,-178"/>
<polygon fill="black" stroke="black" points="970.25,-181.5 980.25,-178 970.25,-174.5 970.25,-181.5"/>
</g>
<!-- LoginComponent -->
<g id="node12" class="node">
<title>LoginComponent</title>
<polygon fill="#ffffb3" stroke="black" points="1793.28,-122 1678.72,-122 1678.72,-86 1793.28,-86 1793.28,-122"/>
<text text-anchor="middle" x="1736" y="-99.8" font-family="Times,serif" font-size="14.00">LoginComponent</text>
</g>
<!-- AuthModule -->
<g id="node14" class="node">
<title>AuthModule</title>
<polygon fill="#8dd3c7" stroke="black" points="1567.55,-187 1564.55,-191 1543.55,-191 1540.55,-187 1480.45,-187 1480.45,-151 1567.55,-151 1567.55,-187"/>
<text text-anchor="middle" x="1524" y="-164.8" font-family="Times,serif" font-size="14.00">AuthModule</text>
</g>
<!-- LoginComponent&#45;&gt;AuthModule -->
<g id="edge10" class="edge">
<title>LoginComponent&#45;&gt;AuthModule</title>
<path fill="none" stroke="black" d="M1736,-122.03C1736,-138.4 1736,-160 1736,-160 1736,-160 1577.67,-160 1577.67,-160"/>
<polygon fill="black" stroke="black" points="1577.67,-156.5 1567.67,-160 1577.67,-163.5 1577.67,-156.5"/>
</g>
<!-- LogoutComponent -->
<g id="node13" class="node">
<title>LogoutComponent</title>
<polygon fill="#ffffb3" stroke="black" points="1660.78,-122 1539.22,-122 1539.22,-86 1660.78,-86 1660.78,-122"/>
<text text-anchor="middle" x="1600" y="-99.8" font-family="Times,serif" font-size="14.00">LogoutComponent</text>
</g>
<!-- LogoutComponent&#45;&gt;AuthModule -->
<g id="edge11" class="edge">
<title>LogoutComponent&#45;&gt;AuthModule</title>
<path fill="none" stroke="black" d="M1553.44,-122.11C1553.44,-122.11 1553.44,-140.99 1553.44,-140.99"/>
<polygon fill="black" stroke="black" points="1549.94,-140.99 1553.44,-150.99 1556.94,-140.99 1549.94,-140.99"/>
</g>
<!-- AuthRoutingModule -->
<g id="node15" class="node">
<title>AuthRoutingModule</title>
<polygon fill="#8dd3c7" stroke="black" points="1515.17,-122 1512.17,-126 1491.17,-126 1488.17,-122 1382.83,-122 1382.83,-86 1515.17,-86 1515.17,-122"/>
<text text-anchor="middle" x="1449" y="-99.8" font-family="Times,serif" font-size="14.00">AuthRoutingModule</text>
</g>
<!-- AuthRoutingModule&#45;&gt;AuthModule -->
<g id="edge12" class="edge">
<title>AuthRoutingModule&#45;&gt;AuthModule</title>
<path fill="none" stroke="black" d="M1497.78,-122.11C1497.78,-122.11 1497.78,-140.99 1497.78,-140.99"/>
<polygon fill="black" stroke="black" points="1494.28,-140.99 1497.78,-150.99 1501.28,-140.99 1494.28,-140.99"/>
</g>
<!-- AuthService -->
<g id="node16" class="node">
<title>AuthService</title>
<ellipse fill="#fdb462" stroke="black" cx="1300" cy="-104" rx="59.11" ry="18"/>
<text text-anchor="middle" x="1300" y="-99.8" font-family="Times,serif" font-size="14.00">AuthService</text>
</g>
<!-- AuthService&#45;&gt;AuthModule -->
<g id="edge13" class="edge">
<title>AuthService&#45;&gt;AuthModule</title>
<path fill="none" stroke="black" d="M1300,-122.02C1300,-139.37 1300,-163 1300,-163 1300,-163 1470.28,-163 1470.28,-163"/>
<polygon fill="black" stroke="black" points="1470.28,-166.5 1480.28,-163 1470.28,-159.5 1470.28,-166.5"/>
</g>
<!-- PAddComponent -->
<g id="node17" class="node">
<title>PAddComponent</title>
<polygon fill="#ffffb3" stroke="black" points="2530.72,-122 2417.28,-122 2417.28,-86 2530.72,-86 2530.72,-122"/>
<text text-anchor="middle" x="2474" y="-99.8" font-family="Times,serif" font-size="14.00">PAddComponent</text>
</g>
<!-- ProductModule -->
<g id="node21" class="node">
<title>ProductModule</title>
<polygon fill="#8dd3c7" stroke="black" points="2251.6,-187 2248.6,-191 2227.6,-191 2224.6,-187 2148.4,-187 2148.4,-151 2251.6,-151 2251.6,-187"/>
<text text-anchor="middle" x="2200" y="-164.8" font-family="Times,serif" font-size="14.00">ProductModule</text>
</g>
<!-- PAddComponent&#45;&gt;ProductModule -->
<g id="edge14" class="edge">
<title>PAddComponent&#45;&gt;ProductModule</title>
<path fill="none" stroke="black" d="M2474,-122.29C2474,-144.21 2474,-178 2474,-178 2474,-178 2261.86,-178 2261.86,-178"/>
<polygon fill="black" stroke="black" points="2261.86,-174.5 2251.86,-178 2261.86,-181.5 2261.86,-174.5"/>
</g>
<!-- PDeleteComponent -->
<g id="node18" class="node">
<title>PDeleteComponent</title>
<polygon fill="#ffffb3" stroke="black" points="2399.65,-122 2274.35,-122 2274.35,-86 2399.65,-86 2399.65,-122"/>
<text text-anchor="middle" x="2337" y="-99.8" font-family="Times,serif" font-size="14.00">PDeleteComponent</text>
</g>
<!-- PDeleteComponent&#45;&gt;ProductModule -->
<g id="edge15" class="edge">
<title>PDeleteComponent&#45;&gt;ProductModule</title>
<path fill="none" stroke="black" d="M2337,-122.11C2337,-141.34 2337,-169 2337,-169 2337,-169 2261.79,-169 2261.79,-169"/>
<polygon fill="black" stroke="black" points="2261.79,-165.5 2251.79,-169 2261.79,-172.5 2261.79,-165.5"/>
</g>
<!-- PEditComponent -->
<g id="node19" class="node">
<title>PEditComponent</title>
<polygon fill="#ffffb3" stroke="black" points="2256.45,-122 2143.55,-122 2143.55,-86 2256.45,-86 2256.45,-122"/>
<text text-anchor="middle" x="2200" y="-99.8" font-family="Times,serif" font-size="14.00">PEditComponent</text>
</g>
<!-- PEditComponent&#45;&gt;ProductModule -->
<g id="edge16" class="edge">
<title>PEditComponent&#45;&gt;ProductModule</title>
<path fill="none" stroke="black" d="M2200,-122.11C2200,-122.11 2200,-140.99 2200,-140.99"/>
<polygon fill="black" stroke="black" points="2196.5,-140.99 2200,-150.99 2203.5,-140.99 2196.5,-140.99"/>
</g>
<!-- PIndexComponent -->
<g id="node20" class="node">
<title>PIndexComponent</title>
<polygon fill="#ffffb3" stroke="black" points="2125.49,-122 2004.51,-122 2004.51,-86 2125.49,-86 2125.49,-122"/>
<text text-anchor="middle" x="2065" y="-99.8" font-family="Times,serif" font-size="14.00">PIndexComponent</text>
</g>
<!-- PIndexComponent&#45;&gt;ProductModule -->
<g id="edge17" class="edge">
<title>PIndexComponent&#45;&gt;ProductModule</title>
<path fill="none" stroke="black" d="M2065,-122.11C2065,-141.34 2065,-169 2065,-169 2065,-169 2138.19,-169 2138.19,-169"/>
<polygon fill="black" stroke="black" points="2138.19,-172.5 2148.19,-169 2138.19,-165.5 2138.19,-172.5"/>
</g>
<!-- ProductRoutingModule -->
<g id="node22" class="node">
<title>ProductRoutingModule</title>
<polygon fill="#8dd3c7" stroke="black" points="1981.22,-122 1978.22,-126 1957.22,-126 1954.22,-122 1832.78,-122 1832.78,-86 1981.22,-86 1981.22,-122"/>
<text text-anchor="middle" x="1907" y="-99.8" font-family="Times,serif" font-size="14.00">ProductRoutingModule</text>
</g>
<!-- ProductRoutingModule&#45;&gt;ProductModule -->
<g id="edge18" class="edge">
<title>ProductRoutingModule&#45;&gt;ProductModule</title>
<path fill="none" stroke="black" d="M1907,-122.29C1907,-144.21 1907,-178 1907,-178 1907,-178 2138.29,-178 2138.29,-178"/>
<polygon fill="black" stroke="black" points="2138.29,-181.5 2148.29,-178 2138.29,-174.5 2138.29,-181.5"/>
</g>
<!-- HomeComponent -->
<g id="node23" class="node">
<title>HomeComponent</title>
<polygon fill="#ffffb3" stroke="black" points="3136.55,-122 3021.45,-122 3021.45,-86 3136.55,-86 3136.55,-122"/>
<text text-anchor="middle" x="3079" y="-99.8" font-family="Times,serif" font-size="14.00">HomeComponent</text>
</g>
<!-- PublicModule -->
<g id="node26" class="node">
<title>PublicModule</title>
<polygon fill="#8dd3c7" stroke="black" points="2915.83,-187 2912.83,-191 2891.83,-191 2888.83,-187 2820.17,-187 2820.17,-151 2915.83,-151 2915.83,-187"/>
<text text-anchor="middle" x="2868" y="-164.8" font-family="Times,serif" font-size="14.00">PublicModule</text>
</g>
<!-- HomeComponent&#45;&gt;PublicModule -->
<g id="edge19" class="edge">
<title>HomeComponent&#45;&gt;PublicModule</title>
<path fill="none" stroke="black" d="M3079,-122.11C3079,-141.34 3079,-169 3079,-169 3079,-169 2925.88,-169 2925.88,-169"/>
<polygon fill="black" stroke="black" points="2925.88,-165.5 2915.88,-169 2925.88,-172.5 2925.88,-165.5"/>
</g>
<!-- PheaderComponent -->
<g id="node24" class="node">
<title>PheaderComponent</title>
<polygon fill="#ffffb3" stroke="black" points="3003.42,-122 2876.58,-122 2876.58,-86 3003.42,-86 3003.42,-122"/>
<text text-anchor="middle" x="2940" y="-99.8" font-family="Times,serif" font-size="14.00">PheaderComponent</text>
</g>
<!-- PheaderComponent&#45;&gt;PublicModule -->
<g id="edge20" class="edge">
<title>PheaderComponent&#45;&gt;PublicModule</title>
<path fill="none" stroke="black" d="M2896.23,-122.11C2896.23,-122.11 2896.23,-140.99 2896.23,-140.99"/>
<polygon fill="black" stroke="black" points="2892.73,-140.99 2896.23,-150.99 2899.73,-140.99 2892.73,-140.99"/>
</g>
<!-- PlayoutComponent -->
<g id="node25" class="node">
<title>PlayoutComponent</title>
<polygon fill="#ffffb3" stroke="black" points="2859.11,-122 2734.89,-122 2734.89,-86 2859.11,-86 2859.11,-122"/>
<text text-anchor="middle" x="2797" y="-99.8" font-family="Times,serif" font-size="14.00">PlayoutComponent</text>
</g>
<!-- PlayoutComponent&#45;&gt;PublicModule -->
<g id="edge21" class="edge">
<title>PlayoutComponent&#45;&gt;PublicModule</title>
<path fill="none" stroke="black" d="M2839.7,-122.11C2839.7,-122.11 2839.7,-140.99 2839.7,-140.99"/>
<polygon fill="black" stroke="black" points="2836.2,-140.99 2839.7,-150.99 2843.2,-140.99 2836.2,-140.99"/>
</g>
<!-- PublicRoutingModule -->
<g id="node27" class="node">
<title>PublicRoutingModule</title>
<polygon fill="#8dd3c7" stroke="black" points="2711.45,-122 2708.45,-126 2687.45,-126 2684.45,-122 2570.55,-122 2570.55,-86 2711.45,-86 2711.45,-122"/>
<text text-anchor="middle" x="2641" y="-99.8" font-family="Times,serif" font-size="14.00">PublicRoutingModule</text>
</g>
<!-- PublicRoutingModule&#45;&gt;PublicModule -->
<g id="edge22" class="edge">
<title>PublicRoutingModule&#45;&gt;PublicModule</title>
<path fill="none" stroke="black" d="M2641,-122.03C2641,-138.4 2641,-160 2641,-160 2641,-160 2810.14,-160 2810.14,-160"/>
<polygon fill="black" stroke="black" points="2810.14,-163.5 2820.14,-160 2810.14,-156.5 2810.14,-163.5"/>
</g>
</g>
</svg>
