<?xml version="1.0" encoding="UTF-8" standalone="no"?>
<!DOCTYPE svg PUBLIC "-//W3C//DTD SVG 1.1//EN"
 "http://www.w3.org/Graphics/SVG/1.1/DTD/svg11.dtd">
<!-- Generated by graphviz version 2.47.0 (20210316.0004)
 -->
<!-- Title: dependencies Pages: 1 -->
<svg width="813pt" height="211pt"
 viewBox="0.00 0.00 813.00 211.00" xmlns="http://www.w3.org/2000/svg" xmlns:xlink="http://www.w3.org/1999/xlink">
<g id="graph0" class="graph" transform="scale(1 1) rotate(0) translate(4 207)">
<title>dependencies</title>
<polygon fill="white" stroke="transparent" points="-4,4 -4,-207 809,-207 809,4 -4,4"/>
<text text-anchor="start" x="381.51" y="-42.4" font-family="Times-12" font-weight="bold" font-size="14.00">Legend</text>
<polygon fill="#ffffb3" stroke="transparent" points="168.5,-10 168.5,-30 188.5,-30 188.5,-10 168.5,-10"/>
<text text-anchor="start" x="192.13" y="-15.4" font-family="Times-12" font-size="14.00"> &#160;Declarations</text>
<polygon fill="#8dd3c7" stroke="transparent" points="281.5,-10 281.5,-30 301.5,-30 301.5,-10 281.5,-10"/>
<text text-anchor="start" x="305.23" y="-15.4" font-family="Times-12" font-size="14.00"> &#160;Module</text>
<polygon fill="#80b1d3" stroke="transparent" points="367.5,-10 367.5,-30 387.5,-30 387.5,-10 367.5,-10"/>
<text text-anchor="start" x="391.28" y="-15.4" font-family="Times-12" font-size="14.00"> &#160;Bootstrap</text>
<polygon fill="#fdb462" stroke="transparent" points="464.5,-10 464.5,-30 484.5,-30 484.5,-10 464.5,-10"/>
<text text-anchor="start" x="488.17" y="-15.4" font-family="Times-12" font-size="14.00"> &#160;Providers</text>
<polygon fill="#fb8072" stroke="transparent" points="560.5,-10 560.5,-30 580.5,-30 580.5,-10 560.5,-10"/>
<text text-anchor="start" x="584.23" y="-15.4" font-family="Times-12" font-size="14.00"> &#160;Exports</text>
<g id="clust1" class="cluster">
<title>cluster_AdminModule</title>
<polygon fill="none" stroke="black" stroke-dasharray="1,5" points="8,-70 8,-195 797,-195 797,-70 8,-70"/>
</g>
<g id="clust7" class="cluster">
<title>cluster_AdminModule_imports</title>
<polygon fill="none" stroke="black" points="629,-78 629,-130 789,-130 789,-78 629,-78"/>
</g>
<g id="clust2" class="cluster">
<title>cluster_AdminModule_declarations</title>
<polygon fill="none" stroke="black" points="16,-78 16,-130 621,-130 621,-78 16,-78"/>
</g>
<!-- AheaderComponent -->
<g id="node1" class="node">
<title>AheaderComponent</title>
<polygon fill="#ffffb3" stroke="black" points="613.24,-122 484.76,-122 484.76,-86 613.24,-86 613.24,-122"/>
<text text-anchor="middle" x="549" y="-99.8" font-family="Times,serif" font-size="14.00">AheaderComponent</text>
</g>
<!-- AdminModule -->
<g id="node5" class="node">
<title>AdminModule</title>
<polygon fill="#8dd3c7" stroke="black" points="452.44,-187 449.44,-191 428.44,-191 425.44,-187 353.56,-187 353.56,-151 452.44,-151 452.44,-187"/>
<text text-anchor="middle" x="403" y="-164.8" font-family="Times,serif" font-size="14.00">AdminModule</text>
</g>
<!-- AheaderComponent&#45;&gt;AdminModule -->
<g id="edge1" class="edge">
<title>AheaderComponent&#45;&gt;AdminModule</title>
<path fill="none" stroke="black" d="M549,-122.02C549,-139.37 549,-163 549,-163 549,-163 462.43,-163 462.43,-163"/>
<polygon fill="black" stroke="black" points="462.43,-159.5 452.43,-163 462.43,-166.5 462.43,-159.5"/>
</g>
<!-- AlayoutComponent -->
<g id="node2" class="node">
<title>AlayoutComponent</title>
<polygon fill="#ffffb3" stroke="black" points="466.44,-122 339.56,-122 339.56,-86 466.44,-86 466.44,-122"/>
<text text-anchor="middle" x="403" y="-99.8" font-family="Times,serif" font-size="14.00">AlayoutComponent</text>
</g>
<!-- AlayoutComponent&#45;&gt;AdminModule -->
<g id="edge2" class="edge">
<title>AlayoutComponent&#45;&gt;AdminModule</title>
<path fill="none" stroke="black" d="M403,-122.11C403,-122.11 403,-140.99 403,-140.99"/>
<polygon fill="black" stroke="black" points="399.5,-140.99 403,-150.99 406.5,-140.99 399.5,-140.99"/>
</g>
<!-- DashboardComponent -->
<g id="node3" class="node">
<title>DashboardComponent</title>
<polygon fill="#ffffb3" stroke="black" points="321.97,-122 180.03,-122 180.03,-86 321.97,-86 321.97,-122"/>
<text text-anchor="middle" x="251" y="-99.8" font-family="Times,serif" font-size="14.00">DashboardComponent</text>
</g>
<!-- DashboardComponent&#45;&gt;AdminModule -->
<g id="edge3" class="edge">
<title>DashboardComponent&#45;&gt;AdminModule</title>
<path fill="none" stroke="black" d="M251,-122.02C251,-139.37 251,-163 251,-163 251,-163 343.65,-163 343.65,-163"/>
<polygon fill="black" stroke="black" points="343.65,-166.5 353.65,-163 343.65,-159.5 343.65,-166.5"/>
</g>
<!-- SidemenuComponent -->
<g id="node4" class="node">
<title>SidemenuComponent</title>
<polygon fill="#ffffb3" stroke="black" points="161.83,-122 24.17,-122 24.17,-86 161.83,-86 161.83,-122"/>
<text text-anchor="middle" x="93" y="-99.8" font-family="Times,serif" font-size="14.00">SidemenuComponent</text>
</g>
<!-- SidemenuComponent&#45;&gt;AdminModule -->
<g id="edge4" class="edge">
<title>SidemenuComponent&#45;&gt;AdminModule</title>
<path fill="none" stroke="black" d="M93,-122.28C93,-143.32 93,-175 93,-175 93,-175 343.54,-175 343.54,-175"/>
<polygon fill="black" stroke="black" points="343.54,-178.5 353.54,-175 343.54,-171.5 343.54,-178.5"/>
</g>
<!-- AdminRoutingModule -->
<g id="node6" class="node">
<title>AdminRoutingModule</title>
<polygon fill="#8dd3c7" stroke="black" points="780.56,-122 777.56,-126 756.56,-126 753.56,-122 637.44,-122 637.44,-86 780.56,-86 780.56,-122"/>
<text text-anchor="middle" x="709" y="-99.8" font-family="Times,serif" font-size="14.00">AdminRoutingModule</text>
</g>
<!-- AdminRoutingModule&#45;&gt;AdminModule -->
<g id="edge5" class="edge">
<title>AdminRoutingModule&#45;&gt;AdminModule</title>
<path fill="none" stroke="black" d="M709,-122.28C709,-143.32 709,-175 709,-175 709,-175 462.5,-175 462.5,-175"/>
<polygon fill="black" stroke="black" points="462.5,-171.5 452.5,-175 462.5,-178.5 462.5,-171.5"/>
</g>
</g>
</svg>
