<?xml version="1.0" encoding="UTF-8" standalone="no"?>
<!DOCTYPE svg PUBLIC "-//W3C//DTD SVG 1.1//EN"
 "http://www.w3.org/Graphics/SVG/1.1/DTD/svg11.dtd">
<!-- Generated by graphviz version 2.47.0 (20210316.0004)
 -->
<!-- Title: dependencies Pages: 1 -->
<svg width="623pt" height="211pt"
 viewBox="0.00 0.00 623.00 211.00" xmlns="http://www.w3.org/2000/svg" xmlns:xlink="http://www.w3.org/1999/xlink">
<g id="graph0" class="graph" transform="scale(1 1) rotate(0) translate(4 207)">
<title>dependencies</title>
<polygon fill="white" stroke="transparent" points="-4,4 -4,-207 619,-207 619,4 -4,4"/>
<text text-anchor="start" x="286.51" y="-42.4" font-family="Times-12" font-weight="bold" font-size="14.00">Legend</text>
<polygon fill="#ffffb3" stroke="transparent" points="73.5,-10 73.5,-30 93.5,-30 93.5,-10 73.5,-10"/>
<text text-anchor="start" x="97.13" y="-15.4" font-family="Times-12" font-size="14.00"> &#160;Declarations</text>
<polygon fill="#8dd3c7" stroke="transparent" points="186.5,-10 186.5,-30 206.5,-30 206.5,-10 186.5,-10"/>
<text text-anchor="start" x="210.23" y="-15.4" font-family="Times-12" font-size="14.00"> &#160;Module</text>
<polygon fill="#80b1d3" stroke="transparent" points="272.5,-10 272.5,-30 292.5,-30 292.5,-10 272.5,-10"/>
<text text-anchor="start" x="296.28" y="-15.4" font-family="Times-12" font-size="14.00"> &#160;Bootstrap</text>
<polygon fill="#fdb462" stroke="transparent" points="369.5,-10 369.5,-30 389.5,-30 389.5,-10 369.5,-10"/>
<text text-anchor="start" x="393.17" y="-15.4" font-family="Times-12" font-size="14.00"> &#160;Providers</text>
<polygon fill="#fb8072" stroke="transparent" points="465.5,-10 465.5,-30 485.5,-30 485.5,-10 465.5,-10"/>
<text text-anchor="start" x="489.23" y="-15.4" font-family="Times-12" font-size="14.00"> &#160;Exports</text>
<g id="clust1" class="cluster">
<title>cluster_CustomerModule</title>
<polygon fill="none" stroke="black" stroke-dasharray="1,5" points="8,-70 8,-195 607,-195 607,-70 8,-70"/>
</g>
<g id="clust2" class="cluster">
<title>cluster_CustomerModule_declarations</title>
<polygon fill="none" stroke="black" points="200,-78 200,-130 599,-130 599,-78 200,-78"/>
</g>
<g id="clust6" class="cluster">
<title>cluster_CustomerModule_imports</title>
<polygon fill="none" stroke="black" points="16,-78 16,-130 192,-130 192,-78 16,-78"/>
</g>
<!-- PAddComponent -->
<g id="node1" class="node">
<title>PAddComponent</title>
<polygon fill="#ffffb3" stroke="black" points="590.72,-122 477.28,-122 477.28,-86 590.72,-86 590.72,-122"/>
<text text-anchor="middle" x="534" y="-99.8" font-family="Times,serif" font-size="14.00">PAddComponent</text>
</g>
<!-- CustomerModule -->
<g id="node4" class="node">
<title>CustomerModule</title>
<polygon fill="#8dd3c7" stroke="black" points="391.99,-187 388.99,-191 367.99,-191 364.99,-187 278.01,-187 278.01,-151 391.99,-151 391.99,-187"/>
<text text-anchor="middle" x="335" y="-164.8" font-family="Times,serif" font-size="14.00">CustomerModule</text>
</g>
<!-- PAddComponent&#45;&gt;CustomerModule -->
<g id="edge1" class="edge">
<title>PAddComponent&#45;&gt;CustomerModule</title>
<path fill="none" stroke="black" d="M534,-122.11C534,-141.34 534,-169 534,-169 534,-169 402.03,-169 402.03,-169"/>
<polygon fill="black" stroke="black" points="402.03,-165.5 392.03,-169 402.03,-172.5 402.03,-165.5"/>
</g>
<!-- PEditComponent -->
<g id="node2" class="node">
<title>PEditComponent</title>
<polygon fill="#ffffb3" stroke="black" points="459.45,-122 346.55,-122 346.55,-86 459.45,-86 459.45,-122"/>
<text text-anchor="middle" x="403" y="-99.8" font-family="Times,serif" font-size="14.00">PEditComponent</text>
</g>
<!-- PEditComponent&#45;&gt;CustomerModule -->
<g id="edge2" class="edge">
<title>PEditComponent&#45;&gt;CustomerModule</title>
<path fill="none" stroke="black" d="M369.38,-122.11C369.38,-122.11 369.38,-140.99 369.38,-140.99"/>
<polygon fill="black" stroke="black" points="365.88,-140.99 369.38,-150.99 372.88,-140.99 365.88,-140.99"/>
</g>
<!-- PIndexComponent -->
<g id="node3" class="node">
<title>PIndexComponent</title>
<polygon fill="#ffffb3" stroke="black" points="328.49,-122 207.51,-122 207.51,-86 328.49,-86 328.49,-122"/>
<text text-anchor="middle" x="268" y="-99.8" font-family="Times,serif" font-size="14.00">PIndexComponent</text>
</g>
<!-- PIndexComponent&#45;&gt;CustomerModule -->
<g id="edge3" class="edge">
<title>PIndexComponent&#45;&gt;CustomerModule</title>
<path fill="none" stroke="black" d="M303.25,-122.11C303.25,-122.11 303.25,-140.99 303.25,-140.99"/>
<polygon fill="black" stroke="black" points="299.75,-140.99 303.25,-150.99 306.75,-140.99 299.75,-140.99"/>
</g>
<!-- CustomerRoutingModule -->
<g id="node5" class="node">
<title>CustomerRoutingModule</title>
<polygon fill="#8dd3c7" stroke="black" points="183.61,-122 180.61,-126 159.61,-126 156.61,-122 24.39,-122 24.39,-86 183.61,-86 183.61,-122"/>
<text text-anchor="middle" x="104" y="-99.8" font-family="Times,serif" font-size="14.00">CustomerRoutingModule</text>
</g>
<!-- CustomerRoutingModule&#45;&gt;CustomerModule -->
<g id="edge4" class="edge">
<title>CustomerRoutingModule&#45;&gt;CustomerModule</title>
<path fill="none" stroke="black" d="M104,-122.11C104,-141.34 104,-169 104,-169 104,-169 267.9,-169 267.9,-169"/>
<polygon fill="black" stroke="black" points="267.9,-172.5 277.9,-169 267.9,-165.5 267.9,-172.5"/>
</g>
</g>
</svg>
