<?xml version="1.0" encoding="UTF-8" standalone="no"?>
<!DOCTYPE svg PUBLIC "-//W3C//DTD SVG 1.1//EN"
 "http://www.w3.org/Graphics/SVG/1.1/DTD/svg11.dtd">
<!-- Generated by graphviz version 2.47.0 (20210316.0004)
 -->
<!-- Title: dependencies Pages: 1 -->
<svg width="622pt" height="211pt"
 viewBox="0.00 0.00 622.00 211.00" xmlns="http://www.w3.org/2000/svg" xmlns:xlink="http://www.w3.org/1999/xlink">
<g id="graph0" class="graph" transform="scale(1 1) rotate(0) translate(4 207)">
<title>dependencies</title>
<polygon fill="white" stroke="transparent" points="-4,4 -4,-207 618,-207 618,4 -4,4"/>
<text text-anchor="start" x="286.01" y="-42.4" font-family="Times-12" font-weight="bold" font-size="14.00">Legend</text>
<polygon fill="#ffffb3" stroke="transparent" points="73,-10 73,-30 93,-30 93,-10 73,-10"/>
<text text-anchor="start" x="96.63" y="-15.4" font-family="Times-12" font-size="14.00"> &#160;Declarations</text>
<polygon fill="#8dd3c7" stroke="transparent" points="186,-10 186,-30 206,-30 206,-10 186,-10"/>
<text text-anchor="start" x="209.73" y="-15.4" font-family="Times-12" font-size="14.00"> &#160;Module</text>
<polygon fill="#80b1d3" stroke="transparent" points="272,-10 272,-30 292,-30 292,-10 272,-10"/>
<text text-anchor="start" x="295.78" y="-15.4" font-family="Times-12" font-size="14.00"> &#160;Bootstrap</text>
<polygon fill="#fdb462" stroke="transparent" points="369,-10 369,-30 389,-30 389,-10 369,-10"/>
<text text-anchor="start" x="392.67" y="-15.4" font-family="Times-12" font-size="14.00"> &#160;Providers</text>
<polygon fill="#fb8072" stroke="transparent" points="465,-10 465,-30 485,-30 485,-10 465,-10"/>
<text text-anchor="start" x="488.73" y="-15.4" font-family="Times-12" font-size="14.00"> &#160;Exports</text>
<g id="clust1" class="cluster">
<title>cluster_PublicModule</title>
<polygon fill="none" stroke="black" stroke-dasharray="1,5" points="8,-70 8,-195 606,-195 606,-70 8,-70"/>
</g>
<g id="clust6" class="cluster">
<title>cluster_PublicModule_imports</title>
<polygon fill="none" stroke="black" points="442,-78 442,-130 598,-130 598,-78 442,-78"/>
</g>
<g id="clust2" class="cluster">
<title>cluster_PublicModule_declarations</title>
<polygon fill="none" stroke="black" points="16,-78 16,-130 434,-130 434,-78 16,-78"/>
</g>
<!-- HomeComponent -->
<g id="node1" class="node">
<title>HomeComponent</title>
<polygon fill="#ffffb3" stroke="black" points="425.55,-122 310.45,-122 310.45,-86 425.55,-86 425.55,-122"/>
<text text-anchor="middle" x="368" y="-99.8" font-family="Times,serif" font-size="14.00">HomeComponent</text>
</g>
<!-- PublicModule -->
<g id="node4" class="node">
<title>PublicModule</title>
<polygon fill="#8dd3c7" stroke="black" points="345.83,-187 342.83,-191 321.83,-191 318.83,-187 250.17,-187 250.17,-151 345.83,-151 345.83,-187"/>
<text text-anchor="middle" x="298" y="-164.8" font-family="Times,serif" font-size="14.00">PublicModule</text>
</g>
<!-- HomeComponent&#45;&gt;PublicModule -->
<g id="edge1" class="edge">
<title>HomeComponent&#45;&gt;PublicModule</title>
<path fill="none" stroke="black" d="M327.95,-122.11C327.95,-122.11 327.95,-140.99 327.95,-140.99"/>
<polygon fill="black" stroke="black" points="324.45,-140.99 327.95,-150.99 331.45,-140.99 324.45,-140.99"/>
</g>
<!-- PheaderComponent -->
<g id="node2" class="node">
<title>PheaderComponent</title>
<polygon fill="#ffffb3" stroke="black" points="292.42,-122 165.58,-122 165.58,-86 292.42,-86 292.42,-122"/>
<text text-anchor="middle" x="229" y="-99.8" font-family="Times,serif" font-size="14.00">PheaderComponent</text>
</g>
<!-- PheaderComponent&#45;&gt;PublicModule -->
<g id="edge2" class="edge">
<title>PheaderComponent&#45;&gt;PublicModule</title>
<path fill="none" stroke="black" d="M271.27,-122.11C271.27,-122.11 271.27,-140.99 271.27,-140.99"/>
<polygon fill="black" stroke="black" points="267.77,-140.99 271.27,-150.99 274.77,-140.99 267.77,-140.99"/>
</g>
<!-- PlayoutComponent -->
<g id="node3" class="node">
<title>PlayoutComponent</title>
<polygon fill="#ffffb3" stroke="black" points="148.11,-122 23.89,-122 23.89,-86 148.11,-86 148.11,-122"/>
<text text-anchor="middle" x="86" y="-99.8" font-family="Times,serif" font-size="14.00">PlayoutComponent</text>
</g>
<!-- PlayoutComponent&#45;&gt;PublicModule -->
<g id="edge3" class="edge">
<title>PlayoutComponent&#45;&gt;PublicModule</title>
<path fill="none" stroke="black" d="M86,-122.11C86,-141.34 86,-169 86,-169 86,-169 240.16,-169 240.16,-169"/>
<polygon fill="black" stroke="black" points="240.16,-172.5 250.16,-169 240.16,-165.5 240.16,-172.5"/>
</g>
<!-- PublicRoutingModule -->
<g id="node5" class="node">
<title>PublicRoutingModule</title>
<polygon fill="#8dd3c7" stroke="black" points="590.45,-122 587.45,-126 566.45,-126 563.45,-122 449.55,-122 449.55,-86 590.45,-86 590.45,-122"/>
<text text-anchor="middle" x="520" y="-99.8" font-family="Times,serif" font-size="14.00">PublicRoutingModule</text>
</g>
<!-- PublicRoutingModule&#45;&gt;PublicModule -->
<g id="edge4" class="edge">
<title>PublicRoutingModule&#45;&gt;PublicModule</title>
<path fill="none" stroke="black" d="M520,-122.11C520,-141.34 520,-169 520,-169 520,-169 355.9,-169 355.9,-169"/>
<polygon fill="black" stroke="black" points="355.9,-165.5 345.9,-169 355.9,-172.5 355.9,-165.5"/>
</g>
</g>
</svg>
