<?xml version="1.0" encoding="UTF-8" standalone="no"?>
<!DOCTYPE svg PUBLIC "-//W3C//DTD SVG 1.1//EN"
 "http://www.w3.org/Graphics/SVG/1.1/DTD/svg11.dtd">
<!-- Generated by graphviz version 2.47.0 (20210316.0004)
 -->
<!-- Title: dependencies Pages: 1 -->
<svg width="754pt" height="211pt"
 viewBox="0.00 0.00 754.00 211.00" xmlns="http://www.w3.org/2000/svg" xmlns:xlink="http://www.w3.org/1999/xlink">
<g id="graph0" class="graph" transform="scale(1 1) rotate(0) translate(4 207)">
<title>dependencies</title>
<polygon fill="white" stroke="transparent" points="-4,4 -4,-207 750,-207 750,4 -4,4"/>
<text text-anchor="start" x="352.01" y="-42.4" font-family="Times-12" font-weight="bold" font-size="14.00">Legend</text>
<polygon fill="#ffffb3" stroke="transparent" points="139,-10 139,-30 159,-30 159,-10 139,-10"/>
<text text-anchor="start" x="162.63" y="-15.4" font-family="Times-12" font-size="14.00"> &#160;Declarations</text>
<polygon fill="#8dd3c7" stroke="transparent" points="252,-10 252,-30 272,-30 272,-10 252,-10"/>
<text text-anchor="start" x="275.73" y="-15.4" font-family="Times-12" font-size="14.00"> &#160;Module</text>
<polygon fill="#80b1d3" stroke="transparent" points="338,-10 338,-30 358,-30 358,-10 338,-10"/>
<text text-anchor="start" x="361.78" y="-15.4" font-family="Times-12" font-size="14.00"> &#160;Bootstrap</text>
<polygon fill="#fdb462" stroke="transparent" points="435,-10 435,-30 455,-30 455,-10 435,-10"/>
<text text-anchor="start" x="458.67" y="-15.4" font-family="Times-12" font-size="14.00"> &#160;Providers</text>
<polygon fill="#fb8072" stroke="transparent" points="531,-10 531,-30 551,-30 551,-10 531,-10"/>
<text text-anchor="start" x="554.73" y="-15.4" font-family="Times-12" font-size="14.00"> &#160;Exports</text>
<g id="clust1" class="cluster">
<title>cluster_ProductModule</title>
<polygon fill="none" stroke="black" stroke-dasharray="1,5" points="8,-70 8,-195 738,-195 738,-70 8,-70"/>
</g>
<g id="clust2" class="cluster">
<title>cluster_ProductModule_declarations</title>
<polygon fill="none" stroke="black" points="188,-78 188,-130 730,-130 730,-78 188,-78"/>
</g>
<g id="clust7" class="cluster">
<title>cluster_ProductModule_imports</title>
<polygon fill="none" stroke="black" points="16,-78 16,-130 180,-130 180,-78 16,-78"/>
</g>
<!-- PAddComponent -->
<g id="node1" class="node">
<title>PAddComponent</title>
<polygon fill="#ffffb3" stroke="black" points="721.72,-122 608.28,-122 608.28,-86 721.72,-86 721.72,-122"/>
<text text-anchor="middle" x="665" y="-99.8" font-family="Times,serif" font-size="14.00">PAddComponent</text>
</g>
<!-- ProductModule -->
<g id="node5" class="node">
<title>ProductModule</title>
<polygon fill="#8dd3c7" stroke="black" points="442.6,-187 439.6,-191 418.6,-191 415.6,-187 339.4,-187 339.4,-151 442.6,-151 442.6,-187"/>
<text text-anchor="middle" x="391" y="-164.8" font-family="Times,serif" font-size="14.00">ProductModule</text>
</g>
<!-- PAddComponent&#45;&gt;ProductModule -->
<g id="edge1" class="edge">
<title>PAddComponent&#45;&gt;ProductModule</title>
<path fill="none" stroke="black" d="M665,-122.28C665,-143.32 665,-175 665,-175 665,-175 452.86,-175 452.86,-175"/>
<polygon fill="black" stroke="black" points="452.86,-171.5 442.86,-175 452.86,-178.5 452.86,-171.5"/>
</g>
<!-- PDeleteComponent -->
<g id="node2" class="node">
<title>PDeleteComponent</title>
<polygon fill="#ffffb3" stroke="black" points="590.65,-122 465.35,-122 465.35,-86 590.65,-86 590.65,-122"/>
<text text-anchor="middle" x="528" y="-99.8" font-family="Times,serif" font-size="14.00">PDeleteComponent</text>
</g>
<!-- PDeleteComponent&#45;&gt;ProductModule -->
<g id="edge2" class="edge">
<title>PDeleteComponent&#45;&gt;ProductModule</title>
<path fill="none" stroke="black" d="M528,-122.02C528,-139.37 528,-163 528,-163 528,-163 452.79,-163 452.79,-163"/>
<polygon fill="black" stroke="black" points="452.79,-159.5 442.79,-163 452.79,-166.5 452.79,-159.5"/>
</g>
<!-- PEditComponent -->
<g id="node3" class="node">
<title>PEditComponent</title>
<polygon fill="#ffffb3" stroke="black" points="447.45,-122 334.55,-122 334.55,-86 447.45,-86 447.45,-122"/>
<text text-anchor="middle" x="391" y="-99.8" font-family="Times,serif" font-size="14.00">PEditComponent</text>
</g>
<!-- PEditComponent&#45;&gt;ProductModule -->
<g id="edge3" class="edge">
<title>PEditComponent&#45;&gt;ProductModule</title>
<path fill="none" stroke="black" d="M391,-122.11C391,-122.11 391,-140.99 391,-140.99"/>
<polygon fill="black" stroke="black" points="387.5,-140.99 391,-150.99 394.5,-140.99 387.5,-140.99"/>
</g>
<!-- PIndexComponent -->
<g id="node4" class="node">
<title>PIndexComponent</title>
<polygon fill="#ffffb3" stroke="black" points="316.49,-122 195.51,-122 195.51,-86 316.49,-86 316.49,-122"/>
<text text-anchor="middle" x="256" y="-99.8" font-family="Times,serif" font-size="14.00">PIndexComponent</text>
</g>
<!-- PIndexComponent&#45;&gt;ProductModule -->
<g id="edge4" class="edge">
<title>PIndexComponent&#45;&gt;ProductModule</title>
<path fill="none" stroke="black" d="M256,-122.02C256,-139.37 256,-163 256,-163 256,-163 329.19,-163 329.19,-163"/>
<polygon fill="black" stroke="black" points="329.19,-166.5 339.19,-163 329.19,-159.5 329.19,-166.5"/>
</g>
<!-- ProductRoutingModule -->
<g id="node6" class="node">
<title>ProductRoutingModule</title>
<polygon fill="#8dd3c7" stroke="black" points="172.22,-122 169.22,-126 148.22,-126 145.22,-122 23.78,-122 23.78,-86 172.22,-86 172.22,-122"/>
<text text-anchor="middle" x="98" y="-99.8" font-family="Times,serif" font-size="14.00">ProductRoutingModule</text>
</g>
<!-- ProductRoutingModule&#45;&gt;ProductModule -->
<g id="edge5" class="edge">
<title>ProductRoutingModule&#45;&gt;ProductModule</title>
<path fill="none" stroke="black" d="M98,-122.28C98,-143.32 98,-175 98,-175 98,-175 329.29,-175 329.29,-175"/>
<polygon fill="black" stroke="black" points="329.29,-178.5 339.29,-175 329.29,-171.5 329.29,-178.5"/>
</g>
</g>
</svg>
